<?xml version="1.0" encoding="utf-8"?>
<!-- Generator: Adobe Illustrator 28.0.0, SVG Export Plug-In . SVG Version: 6.00 Build 0)  -->
<svg version="1.1" id="Layer_1" xmlns="http://www.w3.org/2000/svg" xmlns:xlink="http://www.w3.org/1999/xlink" x="0px" y="0px"
	 viewBox="0 0 496.06 496.06" style="enable-background:new 0 0 496.06 496.06;" xml:space="preserve">
<style type="text/css">
	.st0{fill:#010101;}
</style>
<g>
	<path class="st0" d="M435.03,216.45c-1.66,0-3,1.34-3,3v245.93c0,7.53-6.12,13.65-13.65,13.65H129.96
		c-7.53,0-13.65-6.12-13.65-13.65v-121.7c6.24,15.06,14.77,31.15,25.22,40.08v67.05c0,1.66,1.34,3,3,3h259.29c1.66,0,3-1.34,3-3
		V189.45c0-1.66-1.34-3-3-3s-3,1.34-3,3v258.36h-85.33v-23.44c22.2-12.5,43.71-25.52,61.38-44.33c7.71-8.21,11.37-19.25,10.04-30.29
		c-4.38-36.26-43.63-81.52-43.99-81.92c-16.54-18.83-43.35-26.81-47.63-27.99c-4.19-2.96-8.38-5.92-12.56-8.88l0.03-13.54
		c4.62-5.46,7.87-12.14,9.37-19.35c8.86-0.59,16.32-10.33,15.5-18.94c10.1-24.5,3.8-50.9-18.26-66.49
		c-18.52-13.09-33.19-15.58-41.64-7.18c-5.24-1.75-19.31-5.73-23.6,0.13c-2.24,3.06-1.03,7.05,1.12,10.76
		c-6.63-0.22-16.43,0.58-20.81,6.52c-3.2,4.35-2.95,10.3,0.75,17.71c2.15,4.31,5.95,8.75,11.52,13.53
		c-2.8,21.15-2.8,56.28,24.06,70.76v7.19l-10.65,6.96c-5.17,0.67-33.22,5.75-47.09,37.96c-7.99,19.79-16.3,39.45-24.52,59.14
		l-10.99-15.31v-71.25c4.61-2.42,8.08-6.42,9.78-11.36l2.46-7.15c2.93-12.1-1.27-20.72-12.62-25.85
		c-31.33-9.2-58.98-29.61-75.86-57.72c-1.37-7.2-4.38-11.73-8.9-13.29c-21.32-7.33-38.55,40.63-42.68,52.64
		c-4.13,12-20.09,60.41,1.23,67.76c5.51,1.57,10.58-0.1,15.2-4.99c21.1-8.1,43.89-10.41,65.98-6.88l-7.07,20.66
		c-1.22-0.89-2.55-1.73-4.02-2.48c-8.59-2.76-14.33,0.59-17.21,10.05c-2.65,9.69-3.12,25.13,8.53,29.58l-0.88,2.56l-9.89,8.65
		c-1.62,2.08-1.29,3.78,1,5.1l26.5,9.12c3.01,1.34,3.29-0.32,3.82-1.86l2.94-8.59c0.4,0.68,3.2,8.42,4.49,12.21v137.68
		c0,10.83,8.81,19.65,19.65,19.65h288.42c10.83,0,19.65-8.81,19.65-19.65V219.45C438.03,217.8,436.69,216.45,435.03,216.45z
		 M147.52,387.93c11.43,6.14,23.11,0.78,31.36-8.35c5.19-5.74,9.7-11.84,13.64-17.95c3.05,26.71,7.37,46.17,8.1,49.38l-6.74,36.81
		h-46.35L147.52,387.93L147.52,387.93z M199.98,447.81l6.23-34.02h65.81c-1.8,3.01-2.89,6.46-3,9.75
		c-0.21,6.4,3.45,13.52,14.34,14.32c9.61,0.72,18.5-4.85,26.12-9.86v19.82L199.98,447.81L199.98,447.81z M283.72,431.87
		c-5.86-0.45-8.87-3.26-8.71-8.13c0.19-5.66,5.02-12.61,10.41-12.66c3.39-1.19,3.84-3.08,1.33-5.68c-3.58-1.01-4.56-2.27-2.93-3.78
		l7.39,0.98c6.21,1.2,12.83-0.44,18.94-4.62l10.31,16.72C318.64,415.75,292.83,432.08,283.72,431.87z M266.31,249.04l13.66-12.68
		l9.32,6.59l-16.27,15.63L266.31,249.04z M241.15,257.36l-6.21-14.3l7.87-5.09l6.39,10.33L241.15,257.36z M276.74,223.21l-0.02,7.99
		l-15.55,14.43h-6.57l-7.82-12.65v-5.4C250.82,229.07,262.08,233.78,276.74,223.21z M253.25,271.8h6.33v92.24l-12.36,12.83
		l-8.51-16.07L253.25,271.8z M260.9,265.8h-8.21l-3.54-8.42l5.09-5.72l0.04-0.04h6.52l4.7,6.67L260.9,265.8z M217.81,147.03
		c-3.41-3.26-5.84-6.32-7.25-9.14c-2.61-5.22-3.05-9.07-1.3-11.45c3.77-5.14,17.24-4.27,21.65-3.57c3.15-0.31,4.1-1.92,2.84-4.83
		c-5.44-6.85-4.78-8.89-4.77-8.9c1.01-1.42,9.55-0.55,18.65,2.65c1.12,0.4,2.24,0.08,3.35-0.97c8.23-10.4,27.17,1.23,34.93,6.72
		c17.67,12.5,24.62,33.13,18.2,53.71c-3.15-3.43-7.07-4.67-11.04-3.12l-0.04-14.97c-0.39-2.38-1.77-3.3-4.12-2.77
		c-0.15,0.06-15.02,5.91-25,1.22c-3.81-1.79-6.38-4.86-7.83-9.39c-0.79-1.77-2.11-2.39-3.98-1.86c-0.17,0.07-16.74,6.54-27.25-3.9
		c-2.41-2.39-4.74,0.22-5.32,2.56C219.09,140.75,218.45,143.51,217.81,147.03z M224.54,143.94c9.86,6.58,21.56,4.46,26.9,2.94
		c2.12,4.65,5.45,8.07,9.93,10.16c8.8,4.12,19.8,1.97,25.66,0.28l0.05,16.51c0.78,3,2.5,3.7,5.15,2.08
		c1.11-1.14,2.77-2.53,4.33-2.45c11.5,0.34,0.46,23.7-8.97,17.51c-1.39-0.91-3.25-0.52-4.15,0.86c-0.91,1.39-0.52,3.24,0.86,4.15
		c0.62,0.4,1.25,0.74,1.91,1.03c-1.6,7.47-5.33,14.26-10.7,19.34c-7.98,7.55-16.79,9.34-26.94,5.48
		C213.83,208.62,221.08,160.03,224.54,143.94z M161.98,343.39c8.91-21.33,17.93-42.6,26.57-64.04
		c11.57-26.87,33.84-32.89,40.79-34.14l8.18,18.84c0.9,2.06,3.58,2.39,4.99,0.8l2.22-2.5l2.87,6.81l-14.98,91.67
		c-0.1,0.65,0,1.31,0.31,1.89l10.92,20.62c0.97,1.84,3.43,2.11,4.81,0.68l16.07-16.69c0.54-0.56,0.84-1.3,0.84-2.08v-95.6l3.67-6
		l0.88,1.25c1.07,1.52,3.23,1.69,4.53,0.44l20.16-19.38c6.21,1.87,29.39,9.67,43.62,25.87c0.38,0.42,38.41,44.75,42.51,78.65
		c1.12,9.27-1.96,18.55-8.45,25.47c-8.36,8.9-25.38,25.06-46.99,35.51l-10.55-17.11c6.66-6.14,29.24-27.43,35.53-39.77
		c0.5-0.98,0.42-2.16-0.21-3.07l-24.64-35.64c-0.94-1.36-2.81-1.71-4.17-0.76c-1.36,0.94-1.7,2.81-0.76,4.17l6.67,9.64
		c-2.77,17.58-7.82,40.17-11.69,56.52c-9.11,8.68-18.44,13.14-31.06,10.25c-4.44-0.07-6.9,2.1-7.4,6.49
		c2.64,2.77,2.72,4.64,0.24,5.63h-71.4c-1.47-6.74-5.74-27.7-8.4-54.69c5.82-10.31,10.09-20.24,13.24-28.15
		c0.61-1.54-0.14-3.28-1.68-3.9c-1.54-0.61-3.29,0.14-3.9,1.68c-3.15,7.91-7.45,17.89-13.32,28.18c-0.04,0.06-0.07,0.12-0.1,0.18
		c-4.72,8.26-10.46,16.71-17.47,24.46c-6.68,7.4-13.06,10.29-19.52,8.83c-15.12-3.41-29.35-30.7-38.81-58.3
		c-0.02-0.04-0.03-0.08-0.04-0.12c-0.84-2.44-1.64-4.88-2.4-7.31c7.65-3.04,12.98-7.98,16.32-12l26.79,37.33
		C159.33,346.78,161.56,344.39,161.98,343.39z M344.28,353.38c-4.04,6.85-12.84,16.4-20.62,24.23c3-13.04,6.29-28.27,8.61-41.61
		L344.28,353.38z M132.44,299.54c-5.14-6.19-5.75-15.98-3.8-23.57c0.92-5.18-0.88-8.97-5.4-11.38l5.09-14.87
		c3.97,1.61,8.93,2.64,13.19,1.9v60.82C141.52,312.45,132.7,299.85,132.44,299.54z M145.2,210.87c8,3.62,10.96,9.69,8.9,18.22
		l-2.46,7.15c-3.62,8-9.7,10.96-18.23,8.88c-4.58-1.63-9.21-3.26-13.88-4.63l11.89-34.53C135.93,207.76,140.59,209.34,145.2,210.87z
		 M51.52,215.98c-9.39-4.35-12.67-11.54-9.86-21.58c2.58-7.49,12.95-14.11,21.06-10.93C62,186.58,54.99,208.46,51.52,215.98z
		 M22.88,248.9c-15.82-5.44-0.11-52.58,2.49-60.13c3.18-9.24,18.16-49.13,33.71-49.13c11.82,0,5.44,35.21,4.92,37.89
		c-11.32-3.81-23.86,2.85-28.01,14.91c-3.63,13.27,0.67,22.93,12.89,28.99C43.29,232.37,35.95,245.8,22.88,248.9z M44.3,240.49
		c16.42-22.07,27.2-54.09,27.83-80.81c13.72,19.12,32.3,34.28,53.75,43.94l-12.16,35.32C85.33,231.28,56.56,236.89,44.3,240.49z
		 M79.37,273.27c1.12-6.01,4.09-8.36,8.9-7.06c2.37,1.22,4.27,2.6,5.74,4.14c3.34,3.42,4.22,8.04,2.63,13.86
		c-2.78,8.35-5.96,14.17-13.9,9.69C77.34,290.88,76.21,283.94,79.37,273.27z M98.17,319.29l-18.76-6.46
		c1.63-1.24,6.68-4.77,7.46-7.06l1.34-3.92c7.89,0.46,12.49-10.87,14.11-15.74c2.27-6.82,1.32-13.07-2.52-18.13l8.27-24.17
		c4.93,1.03,9.82,2.36,14.58,3.97L98.17,319.29z M121.27,270.36c1.69-0.31,1.31,5.51,1.46,4.61c-1.97,8.6-1.42,19.36,3.68,26.54
		c-2.74,3.63-7.62,8.66-15.04,11.58c-1.11-1.86-2.13-3.67-2.97-5.18L121.27,270.36z"/>
	<circle class="st0" cx="435.03" cy="193.49" r="5"/>
	<path class="st0" d="M482.98,87.12h-44.95V30.68c0-10.83-8.81-19.65-19.65-19.65H129.96c-10.83,0-19.65,8.81-19.65,19.65v132.99
		c0,1.66,1.34,3,3,3s3-1.34,3-3V30.68c0-7.53,6.12-13.65,13.65-13.65h89.4l3.87,25.22h-78.71c-1.66,0-3,1.34-3,3v132.22
		c0,1.66,1.34,3,3,3s3-1.34,3-3V48.25h77.4c3.13,6.83,9.96,11.39,17.84,11.39h72.81c7.88,0,14.71-4.56,17.84-11.39h67.4v38.87
		h-56.68c-1.66,0-3,1.34-3,3v69.33c0,1.66,1.34,3,3,3h16.52v31.37c0,2.88,3.4,3.84,5.12,2.12l33.49-33.49h83.72c1.66,0,3-1.34,3-3
		V90.12C485.98,88.47,484.64,87.12,482.98,87.12z M315.57,53.64h-72.81c-6.79,0-12.46-4.87-13.49-11.58l-3.84-25.03H332.9
		l-3.84,25.03C328.03,48.77,322.36,53.64,315.57,53.64z M403.81,42.25h-68.71l3.87-25.22h79.41c7.53,0,13.65,6.12,13.65,13.65v56.44
		h-25.22V45.25C406.81,43.59,405.47,42.25,403.81,42.25z M479.98,156.45h-81.96c-0.8,0-1.56,0.32-2.12,0.88l-29.25,29.25v-27.13
		c0-1.66-1.34-3-3-3h-16.52V93.12h132.85L479.98,156.45L479.98,156.45z"/>
	<path class="st0" d="M443.09,133.65h-78.82c-1.66,0-3,1.34-3,3c0,1.66,1.34,3,3,3h78.82c1.66,0,3-1.34,3-3
		S444.75,133.65,443.09,133.65z"/>
	<path class="st0" d="M361.27,112.65c0,1.66,1.34,3,3,3h98.82c1.66,0,3-1.34,3-3s-1.34-3-3-3h-98.82
		C362.61,109.65,361.27,110.99,361.27,112.65z"/>
</g>
</svg>
