<?xml version="1.0" encoding="utf-8"?>
<!-- Generator: Adobe Illustrator 28.0.0, SVG Export Plug-In . SVG Version: 6.00 Build 0)  -->
<svg version="1.1" id="Layer_1" xmlns="http://www.w3.org/2000/svg" xmlns:xlink="http://www.w3.org/1999/xlink" x="0px" y="0px"
	 viewBox="0 0 311.81 283.46" style="enable-background:new 0 0 311.81 283.46;" xml:space="preserve">
<style type="text/css">
	.st0{fill:#222222;}
	.st1{fill:#222222;}
</style>
<g>
	<path class="st0" d="M59.78,131.25L42.13,58.12h-0.59v73.13H26.85V14.06h18.84L62.6,89.27h0.59V14.06h14.83v117.19H59.78z"/>
	<path class="st0" d="M124.46,131.25H90.93V14.06h33.38v14.09h-16.32v17.06h15.87v13.5h-15.87v57.85h16.47V131.25z"/>
	<path class="st0" d="M142.26,131.25l-13.2-117.19h17.5l8.16,95.98h0.59l9.05-95.98h17.65l-14.83,117.19H142.26z"/>
	<path class="st0" d="M222.96,131.25h-33.52V14.06h33.38v14.09h-16.32v17.06h15.87v13.5h-15.87v57.85h16.47V131.25z"/>
	<path class="st0" d="M249.95,131.25h-17.06V14.06h24.33c5.04,0,9.15,0.27,12.31,0.82c3.16,0.54,5.66,1.68,7.49,3.41
		c1.83,1.73,3.06,4.15,3.71,7.27c0.64,3.12,0.96,7.25,0.96,12.39v12.31c0,3.07-0.32,5.56-0.96,7.49c-0.64,1.93-1.48,3.49-2.52,4.67
		c-1.04,1.19-2.18,2.05-3.41,2.6c-1.24,0.54-2.45,0.96-3.63,1.26v0.59c1.58,0.4,3.02,0.92,4.3,1.56c1.28,0.64,2.4,1.63,3.34,2.97
		c0.94,1.34,1.66,3.04,2.15,5.12c0.49,2.08,0.74,4.75,0.74,8.01v46.73h-17.21v-49.4c0-3.16-0.4-5.36-1.19-6.6
		c-0.79-1.24-2.67-1.85-5.64-1.85h-7.71V131.25z M249.95,59.9h7.71c2.77,0,4.6-0.54,5.49-1.63c0.89-1.09,1.33-3.06,1.33-5.93V37.94
		c0-1.88-0.07-3.39-0.22-4.52c-0.15-1.14-0.47-2.05-0.96-2.74c-0.5-0.69-1.24-1.16-2.23-1.41c-0.99-0.25-2.28-0.37-3.86-0.37h-7.27
		V59.9z"/>
	<path class="st1" d="M56.96,267.92v-26.11H42.58v26.11H25.96v-94.05c0-5.34,0.32-9.64,0.96-12.91c0.64-3.26,1.85-5.76,3.63-7.49
		c1.78-1.73,4.18-2.87,7.19-3.41c3.02-0.54,6.9-0.82,11.64-0.82c4.94,0,9.02,0.3,12.24,0.89c3.21,0.59,5.73,1.76,7.57,3.49
		c1.83,1.73,3.09,4.21,3.78,7.42c0.69,3.21,1.04,7.49,1.04,12.83v94.05H56.96z M49.7,164.53c-1.48,0-2.7,0.13-3.63,0.37
		c-0.94,0.25-1.68,0.69-2.23,1.34c-0.54,0.64-0.89,1.58-1.04,2.82c-0.15,1.24-0.22,2.84-0.22,4.82v54h14.39v-54
		c0-1.98-0.1-3.58-0.3-4.82c-0.2-1.24-0.54-2.17-1.04-2.82c-0.5-0.64-1.24-1.09-2.23-1.34C52.42,164.65,51.18,164.53,49.7,164.53z"
		/>
	<path class="st1" d="M116.3,184.55v-10.68c0-1.98-0.07-3.58-0.22-4.82c-0.15-1.24-0.49-2.17-1.04-2.82
		c-0.54-0.64-1.29-1.09-2.23-1.34c-0.94-0.25-2.15-0.37-3.63-0.37c-1.58,0-2.84,0.13-3.78,0.37c-0.94,0.25-1.68,0.72-2.23,1.41
		c-0.54,0.69-0.89,1.66-1.04,2.89c-0.15,1.24-0.22,2.8-0.22,4.67v70.76c0,1.98,0.1,3.61,0.3,4.9c0.2,1.29,0.57,2.28,1.11,2.97
		c0.54,0.69,1.33,1.16,2.37,1.41c1.04,0.25,2.45,0.37,4.23,0.37c1.48,0,2.84-0.05,4.08-0.15c1.24-0.1,2.15-0.25,2.74-0.45v-53.85
		h16.02v68.09c-1.39,0.3-4.06,0.62-8.01,0.96c-3.96,0.35-8.6,0.52-13.94,0.52c-5.44,0-9.86-0.3-13.28-0.89
		c-3.41-0.59-6.06-1.78-7.94-3.56c-1.88-1.78-3.14-4.3-3.78-7.57c-0.64-3.26-0.96-7.52-0.96-12.76v-70.76
		c0-5.34,0.35-9.64,1.04-12.91c0.69-3.26,1.95-5.76,3.78-7.49c1.83-1.73,4.33-2.87,7.49-3.41c3.16-0.54,7.17-0.82,12.01-0.82
		c4.75,0,8.65,0.27,11.72,0.82c3.06,0.54,5.49,1.68,7.27,3.41c1.78,1.73,2.99,4.2,3.63,7.42c0.64,3.21,0.96,7.54,0.96,12.98v10.68
		H116.3z"/>
	<path class="st1" d="M175.19,267.92v-26.11H160.8v26.11h-16.62v-94.05c0-5.34,0.32-9.64,0.96-12.91c0.64-3.26,1.85-5.76,3.63-7.49
		c1.78-1.73,4.18-2.87,7.19-3.41c3.01-0.54,6.9-0.82,11.64-0.82c4.94,0,9.02,0.3,12.24,0.89c3.21,0.59,5.73,1.76,7.57,3.49
		c1.83,1.73,3.09,4.21,3.78,7.42c0.69,3.21,1.04,7.49,1.04,12.83v94.05H175.19z M167.92,164.53c-1.48,0-2.7,0.13-3.63,0.37
		c-0.94,0.25-1.68,0.69-2.23,1.34c-0.54,0.64-0.89,1.58-1.04,2.82c-0.15,1.24-0.22,2.84-0.22,4.82v54h14.39v-54
		c0-1.98-0.1-3.58-0.3-4.82c-0.2-1.24-0.55-2.17-1.04-2.82c-0.5-0.64-1.24-1.09-2.23-1.34
		C170.64,164.65,169.41,164.53,167.92,164.53z"/>
	<path class="st1" d="M221.62,267.92h-17.06V150.73h17.06V267.92z"/>
	<path class="st1" d="M267.6,267.92l-17.65-73.13h-0.59v73.13h-14.69V150.73h18.84l16.91,75.21h0.59v-75.21h14.83v117.19H267.6z"/>
</g>
</svg>
