<svg id="Layer_1" data-name="Layer 1" xmlns="http://www.w3.org/2000/svg" viewBox="0 0 100 100"><defs><style>.cls-1{fill:#fff;}.cls-2{fill:#0771c4;}</style></defs><title>bkng</title><rect class="cls-1" width="100" height="100"/><path class="cls-2" d="M37.65,62.87A7.15,7.15,0,1,0,44.79,70,7.14,7.14,0,0,0,37.65,62.87Z"/><path class="cls-2" d="M50,21.79A19.49,19.49,0,0,0,30.51,41.27V60.76H50a19.49,19.49,0,1,0,0-39Zm0,29.52H40v-10a10,10,0,1,1,10,10Z"/><path class="cls-2" d="M62.35,62.87A7.15,7.15,0,1,0,69.49,70,7.15,7.15,0,0,0,62.35,62.87Z"/></svg>