<?xml version="1.0" encoding="utf-8"?>
<!-- Generator: Adobe Illustrator 28.0.0, SVG Export Plug-In . SVG Version: 6.00 Build 0)  -->
<svg version="1.1" id="Layer_1" xmlns="http://www.w3.org/2000/svg" xmlns:xlink="http://www.w3.org/1999/xlink" x="0px" y="0px"
	 viewBox="0 0 496.06 496.06" style="enable-background:new 0 0 496.06 496.06;" xml:space="preserve">
<style type="text/css">
	.st0{fill:#010101;}
</style>
<g>
	<circle class="st0" cx="84.15" cy="388.92" r="5"/>
	<circle class="st0" cx="412.06" cy="389.13" r="5"/>
	<path class="st0" d="M426.36,124.88l33.87,33.87c1.85,1.85,5.12,0.49,5.12-2.12v-31.75h16.73c1.66,0,3-1.34,3-3V51.8
		c0-1.66-1.34-3-3-3h-61.52V31.9c0-1.66-1.34-3-3-3h-95.51c-1.66,0-3,1.34-3,3c0,1.66,1.34,3,3,3h92.51v13.9h-52.61
		c-1.66,0-3,1.34-3,3v10.64h-26.36c-1.66,0-3,1.34-3,3c0,1.66,1.34,3,3,3h26.36v53.44c0,1.66,1.34,3,3,3h19.08V278.8h-8.86
		c-6.55-16.11-21.3-28.03-39.04-30.56v-22.69c0-19.61-9.62-37.13-24.61-47.83c14.16-7.52,16.45-25.2,11.94-38.85
		c15.51-13.76,16.78-39.11,2.02-54.18c-7.67-7.66-13.07-19.41-15.2-33.09c-4.91-30.64-29.86-40.59-60.53-40.55
		c-28.67,0.04-56.3,10.02-60.83,40.68c-2.04,13.79-10.42,29.11-15.08,32.7c-17.57,13.57-12.78,41.55,1.73,54.43
		c-4.51,13.66-2.22,31.33,11.94,38.85c-14.99,10.7-24.61,28.22-24.61,47.83v23.24c-16.33,3.42-29.74,14.87-35.9,30.02h-12v-81.97
		h32.23c1.66,0,3-1.34,3-3v-70.08c0-1.66-1.34-3-3-3h-32.23V68.43h48.35c1.66,0,3-1.34,3-3c0-1.66-1.34-3-3-3h-51.35
		c-1.66,0-3,1.34-3,3v55.33H78.45V34.9h92.97c1.66,0,3-1.34,3-3c0-1.66-1.34-3-3-3H75.45c-1.66,0-3,1.34-3,3v88.86H14.07
		c-1.66,0-3,1.34-3,3v70.08c0,1.66,1.34,3,3,3H30.8v31.74c0,2.61,3.27,3.97,5.12,2.12l33.87-33.87h2.66v143.43
		c-2.78,1.38-5.89,2.11-9,2.11H14.07c-1.66,0-3,1.34-3,3s1.34,3,3,3h49.38c4.1,0,8.2-0.98,11.86-2.83l33.27-16.84
		c4.44-2.25,9.42-3.44,14.4-3.44h23.12c4.04,0,7.44,2.8,8.35,6.55c0,0,0,0.01,0,0.01c0.16,0.68,0.25,1.35,0.25,1.99v60.47
		c0,1.81-1.47,3.28-3.28,3.28c-10.9,0-19.77-8.87-19.77-19.76l0-12.56c-0.94-3.2-2.75-3.8-5.41-1.78
		c-0.09,0.12-9.14,12.13-25.82,18.79c-1.54,0.61-2.29,2.36-1.67,3.9c0.61,1.54,2.36,2.29,3.9,1.67
		c10.61-4.24,18.31-10.35,23.01-14.85l0,4.83c0,10.94,6.87,20.31,16.51,24.04l3.91,40.72h-35.86c-4.07,0-8-1.21-11.36-3.49
		l-22.24-15.09c-4.36-2.96-9.46-4.53-14.73-4.53H14.07c-1.66,0-3,1.34-3,3s1.34,3,3,3h47.79c4.07,0,8,1.21,11.36,3.49l22.24,15.09
		c4.36,2.96,9.46,4.53,14.73,4.53h36.44l3.16,32.93c0.15,1.55,1.46,2.71,2.98,2.71c0.1,0,0.19,0,0.29-0.01
		c1.65-0.16,2.86-1.62,2.7-3.27l-7.44-77.54c5.56,0.67,12.36-2.39,12.36-9.09v-32.95h35.24l-11.47,119.58
		c-0.16,1.65,1.05,3.11,2.7,3.27c0.1,0.01,0.19,0.01,0.29,0.01c1.53,0,2.83-1.16,2.98-2.71l3.2-33.36
		c15.52-0.2,23.76-21.15,12.14-31.79c2.99-1.13,5.61-2.99,7.62-5.4h69.57c1.98,2.29,4.52,4.08,7.4,5.17
		c-11.63,10.65-3.37,31.61,12.16,31.79l3.22,33.6c0.15,1.55,1.45,2.71,2.98,2.71c0.1,0,0.19,0,0.29-0.01
		c1.65-0.16,2.86-1.62,2.7-3.27l-11.47-119.58h35.22v33.13c0,6.7,6.81,9.75,12.36,9.09l-7.42,77.36c-0.16,1.65,1.05,3.11,2.7,3.27
		c0.1,0.01,0.19,0.01,0.29,0.01c1.53,0,2.83-1.16,2.98-2.71l3.14-32.75h36.44c5.27,0,10.37-1.57,14.73-4.53l22.24-15.09
		c3.36-2.28,7.29-3.49,11.36-3.49h47.79c1.66,0,3-1.34,3-3s-1.34-3-3-3h-47.79c-5.27,0-10.37,1.57-14.73,4.53l-22.24,15.09
		c-3.37,2.28-7.3,3.49-11.36,3.49h-35.86l3.91-40.72c9.65-3.73,16.51-13.09,16.51-24.04l0-4.86c4.69,4.51,12.42,10.65,23.07,14.91
		c1.54,0.61,3.28-0.14,3.9-1.67c0.61-1.54-0.14-3.28-1.67-3.9c-16.68-6.66-25.73-18.67-25.82-18.79c-1.48-2-5.48-1.12-5.48,1.75
		l0,12.56c0,10.87-9.27,19.77-19.77,19.77c-1.81,0-3.28-1.47-3.28-3.28c0,0,0.11-61.91,0.29-62.61c0.96-3.68,4.32-6.41,8.31-6.41
		h23.12c4.98,0,9.96,1.19,14.4,3.44l33.27,16.84c3.66,1.85,7.76,2.83,11.86,2.83h49.38c1.66,0,3-1.34,3-3s-1.34-3-3-3h-49.38
		c-4.39-0.3-8.44-1.53-12.14-3.7V124.88H426.36z M364.94,54.8h114.13v64.08h-16.73c-1.66,0-3,1.34-3,3v27.5l-29.62-29.62
		c-0.56-0.56-1.33-0.88-2.12-0.88h-62.66L364.94,54.8L364.94,54.8z M369.7,294.5h-87.32c1.55-22.74,20.53-40.78,43.66-40.78
		S368.15,271.76,369.7,294.5z M327.11,225.54v5.12c-12.74,0.82-24.77,0.73-36.08-0.13v-55.02
		C311.77,182.38,327.11,203.67,327.11,225.54z M178.19,163.03c-4.79-10.57,0.61-23.83,0.66-23.96c0.52-1.23,0.15-2.66-0.88-3.49
		c-14.05-11.32-16.2-33.23-3.3-46.54c6.22-5,15.01-21.84,17.17-36.43c5.02-33.92,30.86-34.81,55.35-35.56
		c26.84-0.83,49.75,8,54.15,35.48c2.32,14.92,8.32,27.85,16.86,36.38c13.03,13.31,10.94,35.3-3.17,46.68
		c-1.04,0.84-1.4,2.26-0.89,3.49c5.21,12.45,2.36,29.4-11.78,34.82c-9.31-4.52-19.04-7.02-29.18-7.48V147.9
		c12.06-8.44,19.97-22.43,19.97-38.24V72.43c-0.43-2.48-1.86-3.38-4.29-2.71c-3.97,1.89-8.23,2.84-12.65,2.84
		c-11.66,0-22.25-6.89-26.99-17.56c-1.83-2.38-3.66-2.38-5.48,0c-4.73,10.67-15.33,17.56-26.99,17.56c-4.42,0-8.68-0.96-12.65-2.84
		c-2.43-0.67-3.85,0.23-4.29,2.71v37.23c0,15.81,7.91,29.8,19.97,38.24v18.51c-10.14,0.46-19.86,2.96-29.18,7.48
		C184.62,171.59,180.42,167.95,178.19,163.03z M246.5,150.32c-22.42,0-40.66-18.24-40.66-40.66V76.84
		c3.51,1.14,7.17,1.72,10.93,1.72c12.1,0,23.24-6.17,29.73-16.09c6.49,9.92,17.63,16.09,29.73,16.09c3.76,0,7.42-0.58,10.93-1.72
		v32.82C287.16,132.08,268.92,150.32,246.5,150.32z M225.81,167.11v-15.64c13.79,6.47,27.59,6.47,41.38,0v15.64
		c0,11.41-9.28,20.69-20.69,20.69C235.09,187.8,225.81,178.52,225.81,167.11z M192.16,179.91c8.52-4.01,18.82-6.72,28.18-7.52
		c2.46,12.2,13.25,21.41,26.16,21.41c12.91,0,23.71-9.21,26.16-21.41c4.15,0.26,8.28,0.76,12.37,1.5V230
		c-47.86-4.85-82.56-23.1-105.28-40.11C183.34,185.98,187.51,182.6,192.16,179.91z M165.89,225.54c0-11.54,3.72-22.26,10.06-31
		c43.14,32.39,97.78,45.5,151.16,42.14v11.07c-0.36-0.01-0.71-0.03-1.07-0.03c-20.83,0-38.71,12.87-46.12,31.08h-63.69
		c-7.41-18.2-25.28-31.08-46.12-31.08c-1.42,0-2.83,0.07-4.22,0.19L165.89,225.54L165.89,225.54z M170.11,253.73
		c23.13,0,42.11,18.03,43.66,40.78h-87.32C127.99,271.76,146.98,253.73,170.11,253.73z M68.54,190.84c-0.79,0-1.56,0.32-2.12,0.88
		L36.8,221.34v-27.5c0-1.66-1.34-3-3-3H17.07v-64.08h124.14v64.08H68.54z M105.87,323.36l-27.42,13.88v-140.4h27.54v84.96
		c0,1.66,1.34,3,3,3h13c-0.82,3.12-1.35,6.37-1.55,9.7h-4.61c-1.66,0-3,1.34-3,3s1.34,3,3,3h4.61c0.39,6.54,2.06,12.91,4.92,18.77
		C118.67,319.09,112.18,320.45,105.87,323.36z M146.09,319.27h-13.93c-3.31-5.75-5.28-12.15-5.73-18.77h87.33
		c-0.7,10.43-5.04,20.11-12.42,27.63h-41.83C157.29,322.93,152.11,319.27,146.09,319.27z M160.69,334.13h48.94v21.21h-48.94V334.13z
		 M214.61,360.59c6.38,7.42,0.65,20.33-9.32,20.33h-5.22l1.88-19.57C201.95,361.35,214.08,361.05,214.61,360.59z M194.2,442.11
		c-0.16-7.87,1.56-16.31,2.32-24.15C209.51,421.33,207.9,441.2,194.2,442.11z M199.34,411.54h-2.2l2.36-24.61
		C215.28,387.13,215.15,411.54,199.34,411.54z M216.71,404.94c2.18-6.9,0.51-13.3-5.03-19.2c12.77-4.78,16.28-23.77,3.96-32.23
		v-22.39c0-1.66-1.34-3-3-3h-3.3c6.23-7.93,9.86-17.47,10.46-27.63h1.59c1.66,0,3-1.34,3-3s-1.34-3-3-3h-1.59
		c-0.2-3.33-0.72-6.58-1.55-9.7h59.67c-0.83,3.12-1.35,6.37-1.55,9.7h-3.1c-1.66,0-3,1.34-3,3s1.34,3,3,3h3.1
		c0.6,10.16,4.23,19.7,10.46,27.63h-3.3c-1.66,0-3,1.34-3,3v22.12c-4.96,3.39-7.99,9.02-7.99,15.13c0,7.84,4.97,14.53,11.91,17.12
		c-5.61,5.99-7.26,12.47-4.95,19.44L216.71,404.94L216.71,404.94z M284.48,398.98c0-6.73,5.44-12.22,12.16-12.29L299,411.3h-2.23
		C289.99,411.3,284.48,405.78,284.48,398.98z M299.62,417.72l2.32,24.16C281.82,436.67,293.57,416.42,299.62,417.72z M296.06,380.68
		h-5.24c-6.78,0-12.3-5.52-12.3-12.32c0-2.93,1.05-5.71,2.87-7.89c0.54,0.54,12.81,0.87,12.81,0.87L296.06,380.68z M286.51,355.35
		v-21.21h48.94v21.21H286.51z M336.71,328.13H294.8c-7.38-7.52-11.73-17.2-12.42-27.63h87.33c-0.46,6.69-2.46,13.16-5.84,18.95
		h-13.82C344.1,319.45,338.98,323.03,336.71,328.13z M414.55,335.82l-24.28-12.29c-6.34-2.91-12.86-4.27-19.57-4.08
		c2.91-5.91,4.61-12.35,5.01-18.95h3.1c1.66,0,3-1.34,3-3s-1.34-3-3-3h-3.1c-0.2-3.33-0.72-6.58-1.55-9.7h9.85c1.66,0,3-1.34,3-3
		V124.88h27.54V335.82z"/>
	<path class="st0" d="M415.98,87.19c0-10.48-8.52-19-19-19s-19,8.52-19,19s8.52,19,19,19S415.98,97.67,415.98,87.19z M383.98,87.19
		c0-7.17,5.83-13,13-13s13,5.83,13,13s-5.83,13-13,13S383.98,94.36,383.98,87.19z"/>
	<path class="st0" d="M447.03,106.19c10.48,0,19-8.52,19-19s-8.52-19-19-19s-19,8.52-19,19S436.56,106.19,447.03,106.19z
		 M447.03,74.19c7.17,0,13,5.83,13,13s-5.83,13-13,13s-13-5.83-13-13S439.86,74.19,447.03,74.19z"/>
	<path class="st0" d="M105.48,181.35c1,0.69,2.39,0.69,3.4,0c1.67-1.07,20.89-13.65,22.88-27.52c1.6-11.14-11.21-21.54-21.17-16.28
		c-0.04,0.02-1.78,0.95-3.44,2.3c-2.13-1.77-5.56-3.94-9.68-4.02c-10.03,1.65-14.99,7.65-14.87,18
		C84.58,167.71,103.8,180.28,105.48,181.35z M97.32,141.84c4.66,0.08,5.24,2.83,8.25,4.75c1.27,0.81,2.95,0.54,3.92-0.61
		c0.03-0.04,3.45-4.07,7.55-4.14c5.88,1.26,8.8,4.98,8.79,11.15c-1.26,8.78-13.31,18.58-18.64,22.29
		c-5.33-3.72-17.56-13.49-18.64-22.29C87.57,145.17,94.93,141.8,97.32,141.84z"/>
	<path class="st0" d="M29.32,149.34h27.09c1.66,0,3-1.34,3-3s-1.34-3-3-3H29.32c-1.66,0-3,1.34-3,3S27.67,149.34,29.32,149.34z"/>
	<path class="st0" d="M66.42,168.37h-37.1c-1.66,0-3,1.34-3,3s1.34,3,3,3h37.1c1.66,0,3-1.34,3-3S68.08,168.37,66.42,168.37z"/>
</g>
</svg>
