<?xml version="1.0" encoding="UTF-8"?>
<!DOCTYPE svg PUBLIC "-//W3C//DTD SVG 1.1//EN" "http://www.w3.org/Graphics/SVG/1.1/DTD/svg11.dtd">
<svg xmlns="http://www.w3.org/2000/svg" version="1.1" width="189px" height="267px" style="shape-rendering:geometricPrecision; text-rendering:geometricPrecision; image-rendering:optimizeQuality; fill-rule:evenodd; clip-rule:evenodd" xmlns:xlink="http://www.w3.org/1999/xlink">
<g><path style="opacity:1" fill="#fefefe" d="M -0.5,-0.5 C 62.5,-0.5 125.5,-0.5 188.5,-0.5C 188.5,88.5 188.5,177.5 188.5,266.5C 125.5,266.5 62.5,266.5 -0.5,266.5C -0.5,177.5 -0.5,88.5 -0.5,-0.5 Z"/></g>
<g><path style="opacity:1" fill="#e2061a" d="M 44.5,48.5 C 77.3291,47.5017 110.329,47.1684 143.5,47.5C 134.453,104.214 127.786,161.214 123.5,218.5C 103.833,218.5 84.1667,218.5 64.5,218.5C 60.7148,161.36 54.0482,104.694 44.5,48.5 Z"/></g>
<g><path style="opacity:1" fill="#ed7279" d="M 74.5,66.5 C 78.1612,66.3501 79.1612,67.8501 77.5,71C 73.7071,71.4866 72.7071,69.9866 74.5,66.5 Z"/></g>
<g><path style="opacity:1" fill="#fefafb" d="M 114.5,71.5 C 115.805,73.3972 116.471,75.7305 116.5,78.5C 116.167,80.8333 115.833,83.1667 115.5,85.5C 114.713,84.7579 114.047,83.9246 113.5,83C 101.167,82.3333 88.8333,82.3333 76.5,83C 75.6667,83.8333 74.8333,84.6667 74,85.5C 73.5014,81.8484 73.3347,78.1817 73.5,74.5C 86.8375,74.6666 100.171,74.4999 113.5,74C 114.252,73.3292 114.586,72.4959 114.5,71.5 Z"/></g>
<g><path style="opacity:1" fill="#fef5f6" d="M 109.5,85.5 C 116.893,91.1492 118.393,98.1492 114,106.5C 108.331,112.212 101.497,114.045 93.5,112C 85.1893,108.093 82.0227,101.593 84,92.5C 89.1966,84.5772 94.53,84.5772 100,92.5C 101.759,95.6076 102.592,98.941 102.5,102.5C 110.098,102.666 112.931,98.9992 111,91.5C 108.96,89.7194 108.46,87.7194 109.5,85.5 Z"/></g>
<g><path style="opacity:1" fill="#e31c21" d="M 89.5,93.5 C 95.2151,93.8728 98.8818,96.8728 100.5,102.5C 94.2979,104.719 89.6312,103.052 86.5,97.5C 86.7867,95.5567 87.7867,94.2233 89.5,93.5 Z"/></g>
<g><path style="opacity:1" fill="#fef5f6" d="M 110.5,124.5 C 102.833,124.5 95.1667,124.5 87.5,124.5C 87.7148,126.179 87.0481,127.179 85.5,127.5C 83.3753,122.045 79.3753,119.378 73.5,119.5C 73.5,118.5 73.5,117.5 73.5,116.5C 77.5,116.5 81.5,116.5 85.5,116.5C 86.1667,111.167 86.8333,111.167 87.5,116.5C 96.1731,116.666 104.84,116.5 113.5,116C 114.047,115.075 114.713,114.242 115.5,113.5C 117.837,119.154 116.17,122.82 110.5,124.5 Z"/></g>
<g><path style="opacity:1" fill="#ef8d94" d="M 110.5,124.5 C 103.352,125.492 96.0191,125.825 88.5,125.5C 88.5,126.5 88.5,127.5 88.5,128.5C 87.209,128.737 86.209,128.404 85.5,127.5C 87.0481,127.179 87.7148,126.179 87.5,124.5C 95.1667,124.5 102.833,124.5 110.5,124.5 Z"/></g>
<g><path style="opacity:1" fill="#fefbfc" d="M 85.5,129.5 C 87.0257,130.105 88.0257,131.271 88.5,133C 96.8333,133.667 105.167,133.667 113.5,133C 115.294,129.605 116.294,129.939 116.5,134C 116.425,137.417 114.759,139.75 111.5,141C 103.507,141.5 95.5069,141.666 87.5,141.5C 87.719,142.675 87.3857,143.675 86.5,144.5C 83.8617,139.009 79.5284,135.676 73.5,134.5C 77.1224,133.675 80.789,133.175 84.5,133C 85.3366,131.989 85.67,130.822 85.5,129.5 Z"/></g>
<g><path style="opacity:1" fill="#fef9f9" d="M 114.5,145.5 C 115.805,147.397 116.471,149.731 116.5,152.5C 116.167,154.833 115.833,157.167 115.5,159.5C 114.713,158.758 114.047,157.925 113.5,157C 105.167,156.333 96.8333,156.333 88.5,157C 87.9535,157.925 87.2868,158.758 86.5,159.5C 85.5108,155.893 85.1774,152.226 85.5,148.5C 94.8393,148.666 104.173,148.5 113.5,148C 114.252,147.329 114.586,146.496 114.5,145.5 Z"/></g>
<g><path style="opacity:1" fill="#feeaeb" d="M 76.5,148.5 C 81.4943,148.329 83.3276,150.662 82,155.5C 78.0943,158.533 75.261,157.699 73.5,153C 74.3146,151.357 75.3146,149.857 76.5,148.5 Z"/></g>
<g><path style="opacity:1" fill="#fef6f7" d="M 72.5,157.5 C 87.3812,163.795 102.714,169.129 118.5,173.5C 118.67,174.822 118.337,175.989 117.5,177C 105.244,181.863 92.9112,186.53 80.5,191C 77.4245,191.911 75.0911,193.744 73.5,196.5C 72.1667,190.5 72.1667,184.5 73.5,178.5C 74.2807,179.737 75.2807,180.737 76.5,181.5C 84.241,178.422 91.9077,175.256 99.5,172C 91.859,169.397 84.1923,166.897 76.5,164.5C 75.5,165.167 74.5,165.833 73.5,166.5C 72.5159,163.572 72.1826,160.572 72.5,157.5 Z"/></g>
</svg>
