<?xml version="1.0" encoding="UTF-8"?>
<!DOCTYPE svg PUBLIC "-//W3C//DTD SVG 1.1//EN" "http://www.w3.org/Graphics/SVG/1.1/DTD/svg11.dtd">
<svg xmlns="http://www.w3.org/2000/svg" version="1.1" width="300px" height="223px" style="shape-rendering:geometricPrecision; text-rendering:geometricPrecision; image-rendering:optimizeQuality; fill-rule:evenodd; clip-rule:evenodd" xmlns:xlink="http://www.w3.org/1999/xlink">
<g><path style="opacity:0.939" fill="#fe0000" d="M 64.5,-0.5 C 75.1667,-0.5 85.8333,-0.5 96.5,-0.5C 115.436,3.20679 132.936,10.5401 149,21.5C 165.224,10.931 182.724,3.5977 201.5,-0.5C 212.5,-0.5 223.5,-0.5 234.5,-0.5C 255.179,2.25673 272.679,11.2567 287,26.5C 293.214,34.9948 297.38,44.3282 299.5,54.5C 299.5,60.8333 299.5,67.1667 299.5,73.5C 292.327,103.314 275.327,125.814 248.5,141C 239.854,145.824 230.854,149.824 221.5,153C 201.409,159.282 181.075,164.282 160.5,168C 159.124,165.46 159.79,163.46 162.5,162C 185.172,153.83 207.506,144.83 229.5,135C 254.265,120.82 268.265,99.4864 271.5,71C 267.702,45.8626 253.369,30.196 228.5,24C 211.881,20.2013 195.548,21.2013 179.5,27C 168.946,31.5263 158.78,36.693 149,42.5C 132.912,31.3556 115.079,24.5223 95.5,22C 70.9814,19.8304 50.8147,27.9971 35,46.5C 24.7698,68.3679 26.7698,89.0346 41,108.5C 53.7895,122.646 68.9561,133.48 86.5,141C 103.913,147.804 121.247,154.804 138.5,162C 140.227,163.389 141.561,165.056 142.5,167C 141.902,168.301 140.902,169.135 139.5,169.5C 113.728,164.974 88.7279,157.807 64.5,148C 37.2734,136.158 17.1067,116.992 4,90.5C 2.35832,85.746 0.858315,81.0793 -0.5,76.5C -0.5,68.5 -0.5,60.5 -0.5,52.5C 5.35686,28.6945 20.0235,12.8612 43.5,5C 50.514,2.70496 57.514,0.871627 64.5,-0.5 Z M 108.5,60.5 C 125.596,59.9659 138.096,67.2992 146,82.5C 147.733,84.6015 149.733,84.9348 152,83.5C 157.899,71.9277 167.066,64.4277 179.5,61C 200.332,60.1725 208.498,70.0058 204,90.5C 198.932,100.235 191.766,108.068 182.5,114C 171.792,120.126 160.625,125.293 149,129.5C 129.563,123.458 112.897,113.124 99,98.5C 93.0124,89.3189 92.0124,79.6522 96,69.5C 99.2991,65.1179 103.466,62.1179 108.5,60.5 Z"/></g>
<g><path style="opacity:0.935" fill="#fe0000" d="M 93.5,39.5 C 108.362,38.4654 122.029,41.9654 134.5,50C 139.38,54.3865 144.38,58.5532 149.5,62.5C 160.501,50.3294 174.167,42.8294 190.5,40C 209.091,37.4122 223.925,43.5789 235,58.5C 241.177,73.6673 239.177,87.6673 229,100.5C 215.703,114.241 199.87,124.074 181.5,130C 170.115,134.429 158.448,137.429 146.5,139C 122.263,131.929 99.596,121.596 78.5,108C 67.0681,99.3024 60.7347,87.8024 59.5,73.5C 60.5038,62.3178 65.5038,53.4845 74.5,47C 80.5702,43.5927 86.9035,41.0927 93.5,39.5 Z M 108.5,60.5 C 103.466,62.1179 99.2991,65.1179 96,69.5C 92.0124,79.6522 93.0124,89.3189 99,98.5C 112.897,113.124 129.563,123.458 149,129.5C 160.625,125.293 171.792,120.126 182.5,114C 191.766,108.068 198.932,100.235 204,90.5C 208.498,70.0058 200.332,60.1725 179.5,61C 167.066,64.4277 157.899,71.9277 152,83.5C 149.733,84.9348 147.733,84.6015 146,82.5C 138.096,67.2992 125.596,59.9659 108.5,60.5 Z"/></g>
<g><path style="opacity:0.782" fill="#fe0000" d="M 206.5,180.5 C 209.852,181.008 212.852,182.342 215.5,184.5C 212.667,189.5 209.833,194.5 207,199.5C 204.609,198.571 202.775,197.071 201.5,195C 203.474,190.244 205.141,185.41 206.5,180.5 Z"/></g>
<g><path style="opacity:0.839" fill="#fe0000" d="M 90.5,222.5 C 89.8333,222.5 89.1667,222.5 88.5,222.5C 86.4996,216.004 83.9996,209.671 81,203.5C 78.3955,209.818 75.8955,216.151 73.5,222.5C 72.8333,222.5 72.1667,222.5 71.5,222.5C 66.506,210.523 61.506,198.523 56.5,186.5C 58.7194,183.554 61.7194,181.887 65.5,181.5C 67.3116,188.436 69.8116,195.103 73,201.5C 75.1775,194.441 78.0108,187.775 81.5,181.5C 84.4286,188.45 87.2619,195.45 90,202.5C 92.2451,195.073 95.2451,188.073 99,181.5C 101.722,182.444 104.222,183.777 106.5,185.5C 101.16,197.863 95.8263,210.196 90.5,222.5 Z"/></g>
<g><path style="opacity:0.861" fill="#fe0000" d="M 137.5,222.5 C 136.5,222.5 135.5,222.5 134.5,222.5C 133.406,220.388 132.406,218.221 131.5,216C 126.177,215.501 120.844,215.334 115.5,215.5C 115.122,217.921 114.455,220.254 113.5,222.5C 112.5,222.5 111.5,222.5 110.5,222.5C 108.565,221.19 106.565,219.857 104.5,218.5C 110.582,206.001 116.916,193.668 123.5,181.5C 130.405,193.639 137.072,205.972 143.5,218.5C 141.435,219.857 139.435,221.19 137.5,222.5 Z M 123.5,199.5 C 124.662,201.986 125.996,204.486 127.5,207C 125.098,207.814 122.765,207.647 120.5,206.5C 121.312,204.055 122.312,201.722 123.5,199.5 Z"/></g>
<g><path style="opacity:0.867" fill="#fe0000" d="M 149.5,182.5 C 152.5,182.5 155.5,182.5 158.5,182.5C 158.5,192.5 158.5,202.5 158.5,212.5C 162.833,212.5 167.167,212.5 171.5,212.5C 171.5,215.5 171.5,218.5 171.5,221.5C 164.167,221.5 156.833,221.5 149.5,221.5C 149.5,208.5 149.5,195.5 149.5,182.5 Z"/></g>
<g><path style="opacity:0.818" fill="#fe0000" d="M 178.5,182.5 C 181.777,182.216 184.943,182.549 188,183.5C 188.818,193.078 188.651,202.578 187.5,212C 191.821,212.499 196.154,212.666 200.5,212.5C 200.5,215.5 200.5,218.5 200.5,221.5C 193.167,221.5 185.833,221.5 178.5,221.5C 178.5,208.5 178.5,195.5 178.5,182.5 Z"/></g>
<g><path style="opacity:0.858" fill="#fe0000" d="M 232.5,222.5 C 231.167,222.5 229.833,222.5 228.5,222.5C 223.973,221.723 220.64,219.223 218.5,215C 220.969,210.074 224.302,209.074 228.5,212C 232.111,213.254 233.611,212.088 233,208.5C 229.063,206.856 225.23,205.023 221.5,203C 217.283,196.738 217.617,190.738 222.5,185C 230.588,180.54 237.255,182.04 242.5,189.5C 240.833,191.833 238.833,193.833 236.5,195.5C 234.772,193.774 232.772,192.441 230.5,191.5C 229.167,192.167 228.167,193.167 227.5,194.5C 230.348,197.093 233.681,198.926 237.5,200C 242.645,204.598 243.812,210.098 241,216.5C 238.678,219.395 235.845,221.395 232.5,222.5 Z"/></g>
</svg>
