<?xml version="1.0" encoding="utf-8"?>
<!-- Generator: Adobe Illustrator 19.0.0, SVG Export Plug-In . SVG Version: 6.00 Build 0)  -->
<svg version="1.1" id="layer" xmlns="http://www.w3.org/2000/svg" xmlns:xlink="http://www.w3.org/1999/xlink" x="0px" y="0px"
	 viewBox="-153 -46 652 652" style="enable-background:new -153 -46 652 652;" xml:space="preserve">
<style type="text/css">
	.st0{fill:#FFFFFF;}
</style>
<path class="st0" d="M24.4,375.3H-3.7c-3.1-15.6-17.1-27.6-33.6-27.6c-12.2,0-22.8,6.3-29,15.6v0.3c-10.2-5.1-19.6-12.2-27.6-20.5
	c-9.7-9.7-15.1-18.5-17.3-24.2c6.3-1.4,11.9-4.8,16.5-9.7c6-6.3,9.1-14.8,9.1-23.3v-20.5c0-24.2,8-48.1,23-67.1
	c21.3-27.3,52.9-42.7,87-42.7c29.3,0,56.9,11.4,77.7,32.1c20.8,20.8,32.1,48.4,32.1,77.7c0,29.3-11.4,56.9-32.1,77.7
	C81.5,363.7,53.6,375.3,24.4,375.3L24.4,375.3z M24.4,375.3"/>
<path d="M147.9,265.3c0-33-12.8-64-36.1-87.3c-23.2-23-54.6-36-87.3-36.1c-37.8,0-73.1,17.1-97.3,47.5
	c-17.4,21.9-26.5,48.9-26.5,76.8V286c0,10.3-7.1,19.9-21.3,20.8c-3.4,0.3-6.3,2.6-6.3,6c-0.6,9.4,9.4,26.5,23,40.1
	c9.4,9.7,20.5,17.4,32.4,23.3c-1.8,10,0.9,20.3,7.5,28.1c6.5,7.8,16.2,12.3,26.4,12.3c16.8,0,30.4-11.7,33.6-27.3h28.7
	c3.7,19.4,23.9,32.7,45.5,25.3c18.8-6.3,27-27.6,20.2-45c7.4-4.8,14.5-10.5,21-16.8C134.9,329.7,148,298.2,147.9,265.3L147.9,265.3z
	 M24.4,375.3H-3.7c-3.1-15.6-17.1-27.6-33.6-27.6c-12.2,0-22.8,6.3-29,15.6v0.3c-10.2-5.1-19.6-12.2-27.6-20.5
	c-9.7-9.7-15.1-18.5-17.3-24.2c6.3-1.4,11.9-4.8,16.5-9.7c6-6.3,9.1-14.8,9.1-23.3v-20.5c0-24.2,8-48.1,23-67.1
	c21.3-27.3,52.9-42.7,87-42.7c29.3,0,56.9,11.4,77.7,32.1c20.8,20.8,32.1,48.4,32.1,77.7c0,29.3-11.4,56.9-32.1,77.7
	C81.5,363.7,53.6,375.3,24.4,375.3L24.4,375.3z M24.4,375.3 M93,238c0,7.5-6.1,13.6-13.6,13.6c-7.5,0-13.7-6.1-13.7-13.6
	c0-7.5,6.1-13.7,13.7-13.7C86.9,224.3,93,230.4,93,238L93,238z M93,238 M10.5,238c0,7.5-6.1,13.6-13.6,13.6
	c-7.5,0-13.7-6.1-13.7-13.6c0-7.5,6.1-13.7,13.7-13.7C4.4,224.3,10.5,230.4,10.5,238L10.5,238z M10.5,238 M1.1,282.9
	c-1.1-2.3-3.7-4-6.3-4c-5,0-8.3,5.1-6.3,9.7c8.8,18.5,27.6,31.6,49.8,31.6c22.2,0,41-12.8,49.8-31.6c2-4.5-1.1-9.7-6.3-9.7h-0.3
	c-2.6,0-4.8,1.4-6,4c-6.5,13.9-20.8,23.6-37.3,23.6C21.9,306.5,7.7,296.8,1.1,282.9L1.1,282.9z M1.1,282.9"/>
<path d="M235.6,257c-1.7,0-2.6,1.1-2,2.8l14.5,44.7c0.3,1.1,1.4,2.3,2.6,2.3h11.9c1.4,0,2.3-0.8,2.6-2.3l8-29.9l8,29.9
	c0.3,1.1,1.4,2.3,2.8,2.3h11.4c1.4,0,2.3-0.8,2.8-2.3l14.5-44.4c0.6-1.7-0.3-2.8-2-2.8h-8.8c-1.4,0-2.3,1.1-2.6,2l-9.1,31.6
	l-8.5-31.9c-0.3-1.4-1.4-2-2.6-2h-10.8c-1.4,0-2.3,0.6-2.6,2l-8.8,31.9l-8.8-31.9c-0.3-1.1-1.1-2-2.6-2H235.6z M339.4,255.6
	c-13.1,0-25,10.3-25,26.2c0,15.9,11.9,26.4,25,26.4c7.1,0,12.8-3.1,15.4-7.4v3.7c0,1.1,0.9,2,2,2h9.1c1.1,0,2-0.8,2-2V259
	c0-1.1-0.8-2.3-2-2.3h-9.1c-1.1,0-2,1.1-2,2.3v4C352.2,258.7,346.5,255.6,339.4,255.6L339.4,255.6z M341.4,267.8
	c7.7,0,13.4,6.3,13.4,13.9c0,7.7-5.7,13.9-13.4,13.9c-7.7,0-13.4-6.3-13.4-13.9C327.7,274.1,333.7,267.8,341.4,267.8L341.4,267.8z
	 M378.4,257c-1.1,0-2,0.9-2,2v7.1c0,1.1,0.9,2,2.3,2.3h22.2l-24.5,27.3c-0.8,0.8-1.1,1.4-1.1,2.5v6.3c0,1.1,0.9,2,2.3,2.3h40.1
	c1.1,0,2-0.8,2-2v-7.1c0-1.1-0.9-2.3-2-2.3h-24.2l24.2-27.3c0.9-0.6,1.1-1.4,1.1-2.6V259c0-1.1-1.1-2-2.3-2.3h-38.1V257z
	 M448.1,255.6c-7.1-0.1-13.9,2.6-18.9,7.6c-5,5-7.7,11.8-7.6,18.9c0,14.8,10.8,26.2,26.5,26.2c11.1,0,17.6-4.3,21.6-9.7
	c0.6-0.9,0.8-2.3-0.3-3.1l-6.5-4.5c-0.3-0.3-0.9-0.3-1.1-0.3c-0.6,0-1.1,0.3-1.7,0.9c-2.9,3.4-7.2,5.3-11.7,5.1
	c-6.8,0-12.2-4.5-13.1-11.7h35.6c2,0,2.3-1.1,2.3-2.3v-2.5C473.7,267.3,463.7,255.6,448.1,255.6L448.1,255.6z M448.3,266.1
	c5.7,0,11.1,3.7,12.2,10.5h-24.5C437.2,270.4,442.4,266.1,448.3,266.1L448.3,266.1z M448.3,266.1"/>
</svg>
