<svg xmlns="http://www.w3.org/2000/svg" height="800" width="1200" version="1.0" viewBox="-18 -24.999175 156 149.99505"><g fill-rule="evenodd"><path d="M3.9667 99.9967l47.5558-25.1631c2.8258.272 5.5434.4358 8.3692.4358C93.0438 75.2694 120 58.3117 120 37.5541 120 16.7903 93.0438 0 59.8917 0 26.7925 0 0 16.7903 0 37.554c0 14.129 12.3388 26.465 30.5982 32.8245L3.9667 99.9967" fill="#ed1c24"/><path d="M38.9674 20.4327H27.2839l.4329 3.3145h1.1409c1.4129 0 1.9043.1633 2.0652.1633.272.164.272.328.272.489 0 .1632 0 .8155-.5967 2.0646-.4885.653-1.1408 1.7411-1.9014 3.1535 0 0-1.7406 2.7176-3.0452 4.619-1.249-2.7176-3.9666-8.585-3.9666-8.585-.1639-.164-.1639-.328-.272-.7609-.164-.4912-.3248-.6522-.3248-.6522v-.164h.1609c0-.164.4359-.164 1.9043-.3273h1.413l-.4915-3.3145H9.6739l.5967 3.1535.98.161c1.4129.1633 1.9014.4913 2.0652.4913 0 0 .3247.3242 1.0853 2.0654 0 0 5.871 12.3353 6.1956 12.9875-.1608.6523-1.249 10.1627-1.249 10.1627-.1639 1.0881-.4886 1.9013-.977 2.0652-.164.1638-.7606.4358-2.393.4358l-1.4129.1639.4886 3.206H32.011l-.6524-3.206-.9243-.1639c-2.0653 0-2.8814-.1082-3.1505-.272-.1638 0-.3277-.3277-.4914-.8162v-.9244c0-.3247 0-.977.1637-1.6293 0 0 .7606-7.4447.9244-8.8578.3247-.4882 8.4248-13.3155 8.4248-13.3155.7605-1.2492 1.249-1.7404 1.4129-1.9014.1609-.164.6523-.328 1.5738-.4913l1.3046-.161-.6523-3.1535h-.977" fill="#fff"/><path d="M42.934 30.9229l-3.642.76-4.5634.9773.436 2.8285h1.1408c1.0852 0 1.5738 0 1.7376.161 0 0 .1638.164.1638.328v.6523l-.98 13.4238v2.0652c.4915 1.9013 1.5767 2.8784 2.3929 3.367.6523.272 1.4129.4358 2.0652.4358 2.5537 0 4.7272-1.5767 6.6316-4.5664.3247-.4885.8132-1.3016 1.3017-2.0652-.1609.4915-.1609.9244-.1609 1.4159v.1608c0 .4885.1609 1.0882.1609 1.5768.1638 1.1408.7635 2.0652 1.413 2.5537.816.6523 1.7405.9244 2.7175.9244 1.7405 0 3.4781-1.0882 4.891-3.3143.8162-.9244 1.4158-2.0653 1.9044-3.3173l.4884-.977-2.7175-1.7376-1.7376 2.7146c-.4914.6523-.6524.9244-.6524.9244l-.111.1639v-.436l1.5766-17.1183.1638-1.4655h-6.0319l-.3276 1.1405c-.4885 2.6622-.8132 4.5636-1.0852 5.8681-.4915 1.9014-.98 3.6418-1.7932 5.2186-.7635 1.7377-1.7406 3.4782-2.665 5.0549-1.249 1.9014-2.0651 2.0653-2.229 2.0653v-1.252l1.4158-16.6299v-.325c0-.4882-.1638-.8162-.4358-1.1405-.6524-.5998-1.1408-.4358-1.4685-.4358m26.1956 0c-3.37.76-5.8681 1.4123-7.5003 1.5763l-1.2491.325.4886 2.9895h1.0881c1.4656 0 1.9014 0 2.0654.164 0 0 .161 0 .161.1603v.5998L62.282 55.325h6.1954l.164-1.1408c.4883-2.665.7601-4.7301.9241-6.143.489-2.2291.9773-4.1305 1.5771-5.4353.6523-1.4131 1.6288-2.9895 2.7147-4.5636 1.4153-1.9043 2.0676-2.0646 2.3926-2.0646v.7601c0 .164-1.5771 18.5872-1.5771 18.5872h6.1437l.1602-1.1408c.328-3.9696.653-6.3069.8163-7.4477.164-1.0853.6522-2.4982 1.249-4.1306.6524-1.5734 1.5772-3.1505 2.7177-4.5636.7609-1.3045 1.7404-1.9043 2.3927-2.0646v.7601l-1.1406 13.6407v1.9013c.325 1.4685.9773 2.3929 1.7374 3.0452.6523.3247 1.4131.5968 2.0654.5968 1.577 0 2.8816-.5968 4.1307-1.9015 1.0881-1.0881 2.2286-2.501 3.1535-4.2386l.161-.3276.4912-.977-2.8292-1.9015-1.9013 2.8785-.1633.3276c-.161.1608-.325.433-.489.5968v.1637c.164-1.5767 1.0881-12.3389 1.0881-12.3389v-3.0419c-.3273-1.413-.9241-2.5012-1.9014-3.3144-.924-.6523-1.9043-.9241-2.9894-.9241-2.2287 0-4.294 1.4123-6.5234 4.4018-.161.325-.3243.489-.5969.8133v-.9766c-.3272-1.577-1.1405-2.8262-2.2286-3.4784-.8132-.4883-1.577-.7601-2.5536-.7601-2.0654 0-4.1307 1.249-6.1961 4.0745-.3243.4913-.5969.9803-.9241 1.4686.164-1.9014.4882-4.783.4882-4.783l-1.3015-.9241-.5998.164m33.9123-9.0778c-.4883.9803-.6523 2.7176-.6523 4.947v4.4026c0 .3243 0 1.7374-.161 6.5204l-.1633 8.4246.9765.272 2.0654.3248 1.7404-7.9333c.5968-3.3145.9248-4.5666 1.0858-5.0549 1.1406-4.294 1.7404-6.7922 1.9044-7.6084.1603-1.0881.1603-2.0654 0-2.9895-.164-.8163-.5998-1.6296-1.2521-2.3904-.6523-.6523-1.5771-.9795-2.5544-.9795-1.2483 0-2.3896.6522-2.9895 2.0646zM100 49.4541c-.5998.7605-.9248 1.7405-.7608 2.6649.325 1.3017.7609 2.226 1.7374 2.8784.7608.6523 1.741.9244 2.6652.9244 1.1413 0 2.0654-.4359 2.7176-1.2491.6493-.8161.9773-1.7405.6493-2.8258-.161-1.1408-.6493-1.9044-1.5734-2.7175-.8162-.6524-1.7935-.98-2.7176-.98-1.4131 0-2.3934.6523-2.7176 1.3047" fill="#fff"/></g></svg>