<?xml version="1.0" encoding="UTF-8"?>
<!DOCTYPE svg PUBLIC "-//W3C//DTD SVG 1.1//EN" "http://www.w3.org/Graphics/SVG/1.1/DTD/svg11.dtd">
<svg xmlns="http://www.w3.org/2000/svg" version="1.1" width="144px" height="300px" style="shape-rendering:geometricPrecision; text-rendering:geometricPrecision; image-rendering:optimizeQuality; fill-rule:evenodd; clip-rule:evenodd" xmlns:xlink="http://www.w3.org/1999/xlink">
<g><path style="opacity:0.932" fill="#000000" d="M 16.5,-0.5 C 24.8333,-0.5 33.1667,-0.5 41.5,-0.5C 47.3719,19.7816 53.0386,40.115 58.5,60.5C 68.793,58.6153 79.1263,56.9487 89.5,55.5C 101.678,37.1416 113.345,18.475 124.5,-0.5C 130.833,-0.5 137.167,-0.5 143.5,-0.5C 143.5,0.5 143.5,1.5 143.5,2.5C 129.331,20.3147 115.997,38.8147 103.5,58C 111.971,59.7262 120.304,61.8928 128.5,64.5C 128.005,72.8102 126.171,80.8102 123,88.5C 115.279,80.0578 106.113,73.7244 95.5,69.5C 87.2817,78.925 79.7817,88.925 73,99.5C 71.5389,110.394 69.7055,121.228 67.5,132C 69.3424,134.33 71.6758,136.163 74.5,137.5C 75.9265,130.846 77.2598,124.179 78.5,117.5C 85.3452,117.042 92.0119,117.542 98.5,119C 96.6076,129.021 94.6076,139.021 92.5,149C 96.0338,152.869 99.8672,156.369 104,159.5C 116.904,172.779 120.904,188.446 116,206.5C 108.389,224.611 95.5557,237.611 77.5,245.5C 73.7793,260.26 71.446,275.26 70.5,290.5C 93.2907,291.486 115.624,288.82 137.5,282.5C 137.833,283.167 138.167,283.833 138.5,284.5C 136.75,289.411 135.417,294.411 134.5,299.5C 104.5,299.5 74.5,299.5 44.5,299.5C 51.293,283.21 55.293,266.21 56.5,248.5C 36.32,250.864 17.32,247.197 -0.5,237.5C -0.5,234.167 -0.5,230.833 -0.5,227.5C 0.615979,222.868 1.94931,218.201 3.5,213.5C 14.2357,224.536 27.2357,231.369 42.5,234C 47.8333,234.667 53.1667,234.667 58.5,234C 63.471,210.008 67.3043,185.841 70,161.5C 68.5867,159.586 66.7534,158.253 64.5,157.5C 63.4354,165.469 62.7687,173.469 62.5,181.5C 54.8045,181.831 47.1378,181.497 39.5,180.5C 41.5272,177.779 43.0272,174.779 44,171.5C 45.9076,163.241 46.9076,154.907 47,146.5C 10.2824,121.936 9.11576,95.6025 43.5,67.5C 36.1691,47.3408 29.3358,27.0074 23,6.5C 21.3059,3.64238 19.1393,1.30904 16.5,-0.5 Z M 77.5,67.5 C 78.8734,67.3433 80.2068,67.51 81.5,68C 77,75.1667 72.5,82.3333 68,89.5C 66.0131,83.8866 64.1797,78.2199 62.5,72.5C 67.3282,70.0495 72.3282,68.3829 77.5,67.5 Z M 45.5,81.5 C 47.8881,82.2187 49.3881,83.8854 50,86.5C 53.7797,97.9765 54.4464,109.643 52,121.5C 40.9888,113.469 37.3221,102.803 41,89.5C 42.3277,86.6882 43.8277,84.0216 45.5,81.5 Z M 88.5,175.5 C 93.9434,179.025 97.4434,184.025 99,190.5C 101.546,204.196 97.7124,215.696 87.5,225C 85.421,226.64 83.0876,227.806 80.5,228.5C 82.3854,210.842 85.0521,193.176 88.5,175.5 Z"/></g>
</svg>
