<svg version="1.1" id="NeverAgainLogo" xmlns="http://www.w3.org/2000/svg" xmlns:xlink="http://www.w3.org/1999/xlink" x="0px" y="0px" viewBox="0 0 496.1 496.1" style="enable-background:new 0 0 496.1 496.1;" xml:space="preserve" width="496.1000061035156" height="496.1000061035156">
<style type="text/css">
.st0{display:none;fill:#FFFFFF;}
.st1{fill:#FFFFFF;}
.st2{fill:#BFFF00;}
</style>
<path d="M476.2,401.8c0,42.1-34.4,76.5-76.5,76.5H93.6c-42.1,0-76.5-34.4-76.5-76.5V95.8c0-42.1,34.4-76.5,76.5-76.5h306.1
	c42.1,0,76.5,34.4,76.5,76.5L476.2,401.8L476.2,401.8z" class="svg-elem-1"></path>
<path class="st0 svg-elem-2" d="M576.2,116.2h130.2c24,0,43.3,5.5,57.8,16.5c14.5,11,21.8,27.6,21.8,49.9c0,13.5-3.3,25.1-9.9,34.7
	c-6.6,9.6-16,17.1-28.4,22.4v0.8c16.5,3.5,29,11.3,37.5,23.4c8.5,12.1,12.8,27.3,12.8,45.6c0,10.5-1.9,20.3-5.6,29.4
	c-3.8,9.1-9.6,17-17.6,23.6s-18.2,11.9-30.8,15.8s-27.4,5.9-44.6,5.9h-123V116.2z M623.1,228.3h76.5c11.2,0,20.6-3.1,28.1-9.6
	c7.5-6.4,11.2-15.6,11.2-27.6c0-13.5-3.4-23-10.1-28.5s-16.5-8.2-29.3-8.2h-76.5L623.1,228.3L623.1,228.3z M623.1,345.7H706
	c14.2,0,25.4-3.7,33.2-11.1c7.9-7.4,11.8-17.9,11.8-31.4c0-13.3-3.9-23.4-11.8-30.6c-8-7.2-18.9-10.6-33.2-10.6h-82.9V345.7z"></path>
<g>
	<path class="st1 svg-elem-3" d="M131.3,236.2l-21.2-87.8h-0.7v87.8H91.8V95.6h22.6l20.3,90.2h0.7V95.6h17.8v140.6H131.3z"></path>
	<path class="st1 svg-elem-4" d="M208.9,236.2h-40.2V95.6h40.1v16.9h-19.6V133h19v16.2h-19v69.4h19.8L208.9,236.2L208.9,236.2z"></path>
	<path class="st1 svg-elem-5" d="M230.2,236.2L214.4,95.6h21l9.8,115.2h0.7l10.9-115.2h21.2l-17.8,140.6H230.2z"></path>
	<path class="st1 svg-elem-6" d="M327.1,236.2h-40.2V95.6h40v16.9h-19.6V133h19v16.2h-19v69.4h19.8V236.2z"></path>
	<path class="st1 svg-elem-7" d="M359.5,236.2H339V95.6h29.2c6,0,11,0.3,14.8,1s6.8,2,9,4.1c2.2,2.1,3.7,5,4.5,8.7c0.8,3.7,1.2,8.7,1.2,14.9
		V139c0,3.7-0.4,6.7-1.2,9c-0.8,2.3-1.8,4.2-3,5.6c-1.2,1.4-2.6,2.5-4.1,3.1s-2.9,1.2-4.4,1.5v0.7c1.9,0.5,3.6,1.1,5.2,1.9
		c1.5,0.8,2.9,2,4,3.6c1.1,1.6,2,3.6,2.6,6.1s0.9,5.7,0.9,9.6v56.1h-20.6v-59.3c0-3.8-0.5-6.4-1.4-7.9s-3.2-2.2-6.8-2.2h-9.3V236.2z
		 M359.5,150.6h9.3c3.3,0,5.5-0.6,6.6-2c1.1-1.3,1.6-3.7,1.6-7.1v-17.3c0-2.2-0.1-4.1-0.3-5.4c-0.2-1.4-0.6-2.5-1.2-3.3
		s-1.5-1.4-2.7-1.7c-1.2-0.3-2.7-0.4-4.6-0.4h-8.7V150.6z"></path>
	<path class="st2 svg-elem-8" d="M127.9,400.2v-31.3h-17.3v31.3H90.7V287.4c0-6.4,0.4-11.6,1.2-15.5c0.8-3.9,2.2-6.9,4.4-9
		c2.1-2.1,5-3.4,8.6-4.1c3.6-0.6,8.3-1,14-1c5.9,0,10.8,0.4,14.7,1.1c3.9,0.7,6.9,2.1,9.1,4.2c2.2,2.1,3.7,5,4.5,8.9
		c0.8,3.9,1.2,9,1.2,15.4v112.9H127.9z M119.2,276.2c-1.8,0-3.2,0.1-4.4,0.5c-1.1,0.3-2,0.8-2.7,1.6c-0.7,0.8-1.1,1.9-1.2,3.4
		c-0.2,1.5-0.3,3.4-0.3,5.8v64.8h17.3v-64.8c0-2.4-0.1-4.3-0.4-5.8c-0.2-1.5-0.7-2.6-1.2-3.4c-0.6-0.8-1.5-1.3-2.7-1.6
		C122.4,276.3,121,276.2,119.2,276.2z"></path>
	<path class="st2 svg-elem-9" d="M199.1,300.2v-12.8c0-2.4-0.1-4.3-0.3-5.8c-0.2-1.5-0.6-2.6-1.2-3.4c-0.6-0.8-1.5-1.3-2.7-1.6
		c-1.1-0.3-2.6-0.5-4.4-0.5c-1.9,0-3.4,0.1-4.5,0.5c-1.1,0.3-2,0.9-2.7,1.7c-0.6,0.8-1.1,2-1.2,3.5c-0.2,1.5-0.3,3.4-0.3,5.6v84.9
		c0,2.4,0.1,4.3,0.4,5.9s0.7,2.7,1.3,3.6c0.6,0.8,1.6,1.4,2.9,1.7c1.2,0.3,2.9,0.5,5.1,0.5c1.8,0,3.4-0.1,4.9-0.2s2.6-0.3,3.3-0.5
		v-64.6h19.2v81.7c-1.7,0.4-4.9,0.7-9.6,1.2c-4.8,0.4-10.3,0.6-16.7,0.6c-6.5,0-11.8-0.4-15.9-1.1c-4.1-0.7-7.3-2.1-9.5-4.3
		c-2.3-2.1-3.8-5.2-4.5-9.1c-0.8-3.9-1.2-9-1.2-15.3v-84.9c0-6.4,0.4-11.6,1.2-15.5c0.8-3.9,2.3-6.9,4.5-9c2.2-2.1,5.2-3.4,9-4.1
		s8.6-1,14.4-1c5.7,0,10.4,0.3,14.1,1c3.7,0.6,6.6,2,8.7,4.1c2.1,2.1,3.6,5,4.4,8.9s1.2,9,1.2,15.6v12.8H199.1z"></path>
	<path class="st2 svg-elem-10" d="M269.8,400.2v-31.3h-17.3v31.3h-19.9V287.4c0-6.4,0.4-11.6,1.2-15.5c0.8-3.9,2.2-6.9,4.4-9
		c2.1-2.1,5-3.4,8.6-4.1c3.6-0.6,8.3-1,14-1c5.9,0,10.8,0.4,14.7,1.1c3.9,0.7,6.9,2.1,9.1,4.2c2.2,2.1,3.7,5,4.5,8.9
		c0.8,3.9,1.2,9,1.2,15.4v112.9H269.8z M261,276.2c-1.8,0-3.2,0.1-4.4,0.5c-1.1,0.3-2,0.8-2.7,1.6c-0.6,0.8-1.1,1.9-1.2,3.4
		c-0.2,1.5-0.3,3.4-0.3,5.8v64.8h17.3v-64.8c0-2.4-0.1-4.3-0.4-5.8c-0.2-1.5-0.6-2.6-1.2-3.4c-0.6-0.8-1.5-1.3-2.7-1.6
		C264.3,276.3,262.8,276.2,261,276.2z"></path>
	<path class="st2 svg-elem-11" d="M325.5,400.2H305V259.6h20.5V400.2z"></path>
	<path class="st2 svg-elem-12" d="M380.7,400.2l-21.2-87.8h-0.7v87.8h-17.6V259.6h22.6l20.3,90.2h0.7v-90.2h17.8v140.6L380.7,400.2L380.7,400.2z
		"></path>
</g>
</svg>
